<svg xmlns="http://www.w3.org/2000/svg" x="0px" y="0px" viewBox="6.380178928375244 6.409925937652588 35.23963165283203 35.18014144897461" enable-background="new 0 0 48 48">
<g>
	
		<path fill="#FFFFFF" stroke="#FE535AFF" stroke-width="1" stroke-linecap="round" stroke-linejoin="round" stroke-miterlimit="10" d="   M35.65585,26.03956c4.33935-6.22473,0.28362-12.58057-4.51766-13.30988c-4.98863-0.75777-7.05192,3.09956-7.05192,3.09956   s-2.06136-3.85733-7.04998-3.09956c-4.80128,0.72931-8.85702,7.08516-4.51766,13.30988   c4.14221,5.94192,8.19378,8.09727,10.2234,8.85179c0.87379,0.32483,1.81476,0.32484,2.68858,0.00012   C27.46069,34.13706,31.51343,31.9818,35.65585,26.03956z"/>
	
		<path fill="#FFFFFF" stroke="#FE535AFF" stroke-width="1" stroke-linecap="round" stroke-linejoin="round" stroke-miterlimit="10" d="   M14.09145,38.6377l-2.24926,2.24926c-0.3625,0.3625-0.9795,0.21912-1.14502-0.26607l-0.71105-2.08437   c-0.08525-0.24989-0.02097-0.52652,0.16573-0.71321l2.24927-2.24927c0.3625-0.3625,0.9795-0.21912,1.14502,0.26608l0.71105,2.08437   C14.34243,38.17437,14.27815,38.451,14.09145,38.6377z"/>
	
		<path fill="#FFFFFF" stroke="#FE535AFF" stroke-width="1" stroke-linecap="round" stroke-linejoin="round" stroke-miterlimit="10" d="   M9.33256,33.87881l-2.24927,2.24926c-0.3625,0.3625-0.21912,0.97951,0.26607,1.14502l2.08437,0.71105   c0.24989,0.08525,0.52652,0.02097,0.71322-0.16573l2.24927-2.24927c0.36249-0.3625,0.21912-0.9795-0.26607-1.14502   l-2.08437-0.71106C9.79588,33.62783,9.51926,33.69211,9.33256,33.87881z"/>
	
		<path fill="#FFFFFF" stroke="#FE535AFF" stroke-width="1" stroke-linecap="round" stroke-linejoin="round" stroke-miterlimit="10" d="   M37.74787,7.01422c-1.49195,0.26627-1.81679,1.73668-1.24171,2.51775c0.59752,0.81155,1.43367,0.55818,1.43367,0.55818   s-0.25364,0.83589,0.55791,1.4334c0.78108,0.57508,2.25148,0.25024,2.51775-1.24171   c0.25417-1.42416-0.01363-2.30076-0.19371-2.69395c-0.07753-0.16928-0.21042-0.30217-0.37969-0.37972   C40.04885,7.02801,39.1721,6.76003,37.74787,7.01422z"/>
</g>
<g>
	
		<line fill="none" stroke="#000000" stroke-width="1" stroke-linecap="round" stroke-linejoin="round" stroke-miterlimit="10" x1="12.56563" y1="35.40463" x2="16.87935" y2="31.09091"/>
	
		<line fill="none" stroke="#000000" stroke-width="1" stroke-linecap="round" stroke-linejoin="round" stroke-miterlimit="10" x1="34.04919" y1="13.92107" x2="37.90997" y2="10.06029"/>
</g>
<g>
	
		<line fill="none" stroke="#000000" stroke-width="1" stroke-linecap="round" stroke-linejoin="round" stroke-miterlimit="10" x1="16.87935" y1="31.09091" x2="24.08723" y2="23.88302"/>
</g>
</svg>